<?xml version="1.0" standalone="no"?><!DOCTYPE svg PUBLIC "-//W3C//DTD SVG 1.1//EN" "http://www.w3.org/Graphics/SVG/1.1/DTD/svg11.dtd"><svg t="1673431022820" class="icon" viewBox="0 0 1152 1024" version="1.1" xmlns="http://www.w3.org/2000/svg" p-id="5587" xmlns:xlink="http://www.w3.org/1999/xlink" width="72" height="64"><path d="M768 243.8c0-12.6-5-24.8-14-33.8L558.2 14c-9-9-21.2-14-34-14H512v256h256zM1142 616l-191.4-192.8c-20.2-20.2-54.8-6-54.8 22.6V576h-128v128h128v130.4c0 28.6 34.6 42.8 54.8 22.6L1142 664c13.2-13.2 13.2-34.8 0-48z m-758 56v-64c0-17.6 14.4-32 32-32h352V320H496c-26.4 0-48-21.6-48-48V0H48C21.4 0 0 21.4 0 48v928c0 26.6 21.4 48 48 48h672c26.6 0 48-21.4 48-48V704H416c-17.6 0-32-14.4-32-32z" p-id="5588" fill="#ffffff"></path></svg>