<?xml version="1.0" standalone="no"?><!DOCTYPE svg PUBLIC "-//W3C//DTD SVG 1.1//EN" "http://www.w3.org/Graphics/SVG/1.1/DTD/svg11.dtd"><svg t="1679360807145" class="icon" viewBox="0 0 1024 1024" version="1.1" xmlns="http://www.w3.org/2000/svg" p-id="9626" xmlns:xlink="http://www.w3.org/1999/xlink" width="64" height="64"><path d="M701.5 732.8h142.8c19.6 0 35.5 15.9 35.5 35.5v71.8c0 19.6-15.9 35.5-35.5 35.5H701.5v42.5c0 29.7-34.3 46.3-57.6 27.9L498.5 830.9c-18.1-14.3-18-41.7 0.2-55.9l145.4-113.5c23.3-18.2 57.4-1.6 57.4 28v43.3z" p-id="9627" fill="#ffffff"></path><path d="M513 98.2L98.3 431v496.7h428.6l-64.5-51.1c-22.7-18-35.7-44.9-35.6-73.9 0.1-29 13.3-55.8 36.1-73.6l145.4-113.5c16.7-13.1 36.6-19.9 57.6-19.9 46.7 0 85.5 34.2 92.7 78.8h145.8c8.1 0 15.8 1.4 23.3 3.3V431L513 98.2zM341.8 854.8H179.5V692.4h162.4v162.4z m0-239.7H179.5V452.7h162.4v162.4z" p-id="9628" fill="#ffffff"></path></svg>